<?xml version="1.0" encoding="utf-8"?>
<!-- Generator: Adobe Illustrator 27.0.0, SVG Export Plug-In . SVG Version: 6.00 Build 0)  -->
<svg version="1.1" id="Layer_1" xmlns="http://www.w3.org/2000/svg" xmlns:xlink="http://www.w3.org/1999/xlink" x="0px" y="0px"
	 viewBox="0 0 200 200" style="enable-background:new 0 0 200 200;" xml:space="preserve">
<g transform="matrix(0.5,0,0,0.5,0,0)">
	<g transform="matrix(2,0,0,2,0,0)">
		<g>
			<path d="M55.1,39.3c-0.1,0.8-0.5,1.6-1.3,2c0.6,1.1,0.5,2.4-0.2,3.4c-0.7,1-1.9,1.4-3.1,1.3c-0.2,0.4-0.5,1.2-1,1.3
				c-0.1,0.1-0.3,0.1-0.4,0c0.2,1.2,1.2,2.2,2.4,2.5c2,0.4,3.8-0.3,3.8-2.3c1,0.2,2,0,2.7-0.6c0.5-0.4,0.9-1.1,1-1.8
				c0.1-2.2-1.5-3.7-2.4-3.7c0.7-1.2,0.3-2.3-0.9-3.1c-0.3-0.2-0.6-0.3-0.9-0.3C55,38.2,55.1,38.8,55.1,39.3z M37.8,39.9
				c0.1,0,0.1-0.1,0.1-0.1c0-0.1-0.1-0.1-0.1-0.1l-0.5-0.1c-0.2,0-0.4,0-0.6-0.1c-0.1-1.3-0.1-2.5,0-3.8c0-0.1-0.1-0.2-0.2-0.1
				c-0.1,0-0.1,0-0.1,0.1c-0.4,1-0.5,2-0.5,3c0,0.4,0,0.7,0.1,1.1C36.2,40.3,37.3,40,37.8,39.9z M33.8,34.9c-0.4,0.1-1,0.5-0.8,0.7
				c0.3,0.1,0.7,0.2,1,0c0.3-0.1,0.8-0.4,0.8-0.5C34.8,34.9,34.2,34.8,33.8,34.9z M39.4,35.5c3,0.6,1.6-0.5,0.1-0.7
				c-0.4-0.1-1.3,0-1.3,0.2C38.3,35.2,39.2,35.4,39.4,35.5z M40.1,36.9c-0.1-0.2-0.3-0.2-0.5-0.1c0,0,0,0,0,0
				c-0.2,0.1-0.2,0.3-0.2,1c0,0.2,0.2,0.4,0.4,0.3c0.2,0,0.4-0.2,0.3-0.4C40.2,37.4,40.2,37.2,40.1,36.9z M34,37.4
				c0-0.2-0.1-0.4-0.3-0.4c-0.2,0-0.4,0.1-0.4,0.3l0,0c0,0.2,0,0.4,0,0.6c0,0.2,0.2,0.4,0.4,0.3c0.2,0,0.4-0.2,0.3-0.4
				C34,37.7,34,37.5,34,37.4z M37,43c0,0.3,1.1,0.3,1.7-0.2c0.4-0.4,0.4-1.1,0.2-1.1c-0.2,0-0.1,0-0.7,0.5C37.8,42.6,37,42.8,37,43z
				"/>
			<path d="M181.8,35.9c-0.5-0.1-1-0.1-1.4,0.2c0.2-0.4,0.2-0.8,0.2-1.3c-0.2-0.7-1.2-1-2,0c-0.1-0.6-0.3-0.9-0.7-1
				c-1.1-0.2-1.6,1.9-1.8,3c-0.6-0.4-1.5-1.1-2-0.6c-0.3,0.3-0.3,0.7-0.2,1.1c0.3,0.6,0.8,1.1,1.4,1.4c-0.2,0.4-0.9,1.4-1.2,2
				c-0.3-0.1-0.9-0.3-1,0c-3,4.1-11.2,13.7-16.3,13.5c-7.9-0.3-17.8-4.1-18.8-4l-1.4-3.1c1.5-1,2.7-2.6,3.3-4.3
				c1-2.7,1.4-5.5,1.3-8.4c0-0.9,0-1.8-0.1-2.8c3.6-0.2,6.1-4.5,3.2-8.1c-0.6-0.9-1.4-1.5-2.4-1.7c-0.6,0-1.2,0-1.7,0.2
				c-3.5,0.9-3.5-1.3-5.9-1.9c-1.1-0.2-2.2-0.1-3.2,0.3c-3.5,1.2-2.8,3.1-4.4,4.7c-0.9,0.9-4.6-0.4-6.1,2.1
				c-1.6,2.7-1.4,8.4,0.9,10.6c0.5,0.5,1.1,0.9,1.7,1.2c0.6,0.6,1.2,1,1.9,1.4c0.7,1.4,1.4,5.3,1.7,6.8l-0.3,2.2
				c-1.8,0.3-3.7,0.7-5.4,1.3c-2.9,0.9-5.7,2.1-8.4,3.6c-4.9,2.6-4.3,2.5-4.5,2.3c-0.6-0.7-1.2-1.3-1.9-1.8c-4.7-4-9.8-7.4-15.9-8.4
				l-0.7-4c1.9-1.6,2.9-4.7,3-6.9c0.7,0.3,1.3-0.2,1.6-0.9c0.1-0.2,0.8,0,1.3-1.1c0.1-0.2,0.1-0.5,0-0.7c0.7-0.4,0.9-1.2,0.5-1.9
				c0-0.1-0.1-0.1-0.1-0.2c0.5-0.3,0.9-0.8,1-1.5c0.2-1.1-0.1-2.2-1.2-2.5c0-0.3,0.2-0.7,0.2-0.8c0-0.8-0.3-1.6-0.9-2.2
				c-1.2-1-1.6-0.9-2.3-0.9c0-0.5,0.3-0.9-0.2-1.6c-0.9-1-2.2-1.3-3.5-0.9l-0.2,0.1c-0.3-0.7-0.8-1.2-1.5-1.5
				c-1.1-0.4-1.8,0.1-2.7,0.6c-1.4-1.2-4-0.6-5.3,0.3c-0.6,0.4-0.7,1.1-0.9,1.4c-0.5,0-1.1,0.1-1.5,0.4c-0.4,0.3-0.8,0.6-1.1,0.9
				c-0.2,0.2-0.4,0.4-0.5,0.6c-0.3,0.4-0.4,0.9-0.4,1.5c-0.2,0.1-0.4,0.1-0.6,0.3c-0.7,0.6-1.2,1.4-1.4,2.3c-0.1,0.5,0,1,0.1,1.5
				c0,0.1,0.1,0.2,0.1,0.2c-0.2,0.3-0.6,0.4-0.7,1.1c-0.1,0.7-0.1,2,0.6,2.4c0.3,0.2,0.9,0.3,1.1,0.5c0,0.4,0,0.7,0,1.1
				c0.2,1.5,1.7,2,3.2,1.8l0.4,0.2c0.2,1.5,0.6,3,1.2,4.5c0.5,0.9,1.2,1.7,2.1,2.3l-0.4,3.7C78,46.8,76,47.3,74.1,48
				c-5.9,2.2-9.4,5-12.5,9.9c-4.2-3.5-11.4-8.7-16.9-8.7c0-0.4,0-0.8,0-1.1c0-0.3-0.1-1-0.4-1.1c0-0.4-0.1-0.9-0.1-1.3
				c2,2.9,5.9,1.4,5.5-0.6c1,0.1,2-0.4,2.6-1.1c0.6-0.9,0.6-2,0-2.9c-0.1-0.1-0.2-0.2-0.3-0.3c1.3-0.3,1.8-0.9,2-1.8
				c0.1-0.7,0.1-1.3-0.1-2c0.2-0.1,0.3-0.2,0.4-0.3c0.4-0.4,0.7-0.9,0.8-1.4c0.2-1.9-0.2-3.8-1.2-5.4c-0.3-0.5-0.8-0.9-1.4-1.1
				c-0.1-0.5-0.2-1-0.2-1.6c-0.3-1.7-1.4-3.1-2.9-3.8c-0.7-0.3-1.5-0.5-2.3-0.6c-0.3,0-0.7,0-1,0.1c-0.6-0.7-1.3-1.2-2.1-1.5
				c-1.6-0.3-3.2,0-4.6,0.8c-0.3,0.2-0.5,0.6-0.8,0.7c-1.2-0.5-2.7-0.5-3.9,0.2c-1.3,0.6-2.2,1.6-2.7,2.9c-0.4,0.9-0.7,2.3-0.1,3
				c0,0,0.1,0.1,0.1,0.1c-0.3,0.6-1.1,0.9-1.3,2.5c-0.1,0.8-0.1,1.6,0.1,2.4c0.1,0.4,0.5,0.7,0.9,0.7c-0.3,2.6-0.2,6.1,1.2,8.3
				c0.4,0.5,0.8,1,1.2,1.4c0.5,0.5,1.1,0.8,1.7,1v1.5c-0.4,0.2-0.1,1.6-0.3,2.4c-3.5-0.2-8.4,0.6-11.1,2.8
				c-4.2,3.5-5.9,8.4-6.4,13.9c-0.6,7.5,3.5,12.2,9.8,13c0.4,1.3,0.9,2.6,1.4,3.9c-2.7,5-4.6,10.4-5.8,15.9
				c-0.9,4.7-1.3,12.2-1.3,19.3c0,3.4,0,16.2,1.1,19.4c0.2,0.5,1,0.8,1.5,0.9c1.4,0.4,2.9,0.6,4.3,0.8c0.4,7.6,1.4,36.5,1.4,36.5
				c-1.5,0.8-2.9,1.8-4.1,3c-0.4,0.3-0.6,0.9-0.5,1.4c0.2,0.5,0.7,0.7,1.2,0.6c1.4-0.1,5.3-1.3,7-1.6c0,0.4,0.1,0.7,0.5,0.9
				c0.6,0.2,1.9,0.3,2.3-0.2s0.2-2,0.2-2.7c0.1-0.5,4-27.7,5.3-37h1.1c1.7,9,6.2,34.7,6.2,34.7c-0.9,0.7-1.8,1.4-2.6,2.2
				c-0.7,0.7-1.8,1.9-1.3,2.7c0.4,0.8,1.5,0.4,2.4,0.1c1.7-0.6,4.3-1.8,5.6-2.2c0.1,0.4,0.2,0.7,0.6,0.8c0.5,0.1,1,0.1,1.5-0.1
				c0.7-0.2,0.9-0.7,0.9-1.4c-0.3-3.8-0.3,8.2-0.1-37c1,0,1.9-0.2,2.8-0.5c2.4-1.2,2.2-36.3-1-47.4c-0.2-0.8-1.6-4.7-2.6-7.2
				c0-0.1,0-0.2,0-0.3c-0.3-0.7-0.6-1.4-1-2.1c0.3-3.2,0.5-9.3,0.8-11.2L58,73c0.2,0.7,0.4,1.4,0.7,2c0.4,0.9,0.9,1.8,1.7,2.4
				c1.9,1.7,4.4,2.5,7,2.2h1.5c1.7,10,1.2,8.9,1.4,9.2c-6.4,22-8.4,73.6-7.6,94.7c0,0.1,0,0.2,0.1,0.3c0.4,0.6,3.2,0.9,4.1,1
				c-1.7,0.9-3.3,2-4.8,3.2c-0.8,0.8,0.2,2.2,1.2,2.4c0.5,0.1,7.6-0.9,8.1-0.9c0.1,0.3,0.2,0.6,0.6,0.7c0.9,0.2,1.9,0.2,2.8,0.2
				c0.4,0,0.9-0.1,1-0.4c0.3-1.4,0.5-2.9,0.5-4.4c0.6,0,1.2,0,1.4-0.2c1.7-1.7,9.4-55.7,10.1-59.3c0.2-1.2,0.3-2.4,0.2-3.6
				c-1.3-14.8-0.8-8.7-1-14.4c0-0.1,0.1-0.1,0.2-0.1c0.1,0,0.1,0.1,0.1,0.1c0.6,6.8,0.9,7,1.4,16c0,0.6,7,58.8,8.3,60.1
				c0.7,0.3,1.4,0.4,2.1,0.4c-0.1,1.9,0.1,3.7,0.4,5.6c0,0.1,0.2,0.3,0.3,0.3c0.6,0.3,3,0,3.5-0.1c0.3-0.1,0.5-0.4,0.6-0.7
				c0.7,0.1,7.6,1.1,8.1,0.9c0.9-0.2,2-1.7,1.2-2.4c-1.8-1.4-3.7-2.6-5.7-3.6c1-0.1,3.2-0.3,4.1-0.8c1.4-0.8,0.1-71.1-10.8-95.8
				c0.2-0.3,1-9.2,1-9.6c2.7-0.1,5.4-1,7.6-2.5l3.5-1.2c-2.1,8-3.7,16.2-4.7,24.4c-0.2,1.6-1.2,9.7-0.1,10.9
				c0.1,0.1,0.3,0.2,0.4,0.2c0.5,0,2.5,0.2,4.6,0.3c0,24.8,2.4,38.1,6.4,64.2c0,0.2,0.2,0.3,0.3,0.3h0.2c0.2,1.2,0.4,2.4,0.8,3.6
				c0.5,1.1,9,1.1,10.2,0.7c0.4-0.2,0.6-0.7,0.5-1.2c-0.3-1.5-3.5-1.9-4.9-3h0.5c0.2,0,0.3-0.1,0.3-0.3l6.6-33.1
				c0.1,0.5,4.7,33.7,4.7,33.7c0,0.2,0.2,0.3,0.4,0.3h0.7c0.1,1.2,0.3,2.4,0.6,3.6c0,0.1,0.1,0.2,0.2,0.3c0.9,0.4,8.5,0.9,9.7,0.2
				c0.5-0.3,0.7-0.8,0.5-1.3c-0.2-0.6-0.6-1.1-1.1-1.5c-1-0.6-2.9-0.7-3.8-1.2h0.5c0.2,0,0.3-0.1,0.4-0.3c0,0,2.5-9.2,4-30.5
				c0.9-12.4,1.1-25.1,1-37.3c1.1,0.1,3,0.2,3.9,0.1c0.3,0,0.5,0,0.6-0.3c1-2,0.2-21.8-0.3-26.9c-0.1-0.5-1.3-8.7-1.5-9.8
				c2.9-0.1,7-0.7,9.4-2.4C175.7,59.7,178,44.9,179,43c0.1-0.2-0.1-0.3-0.7-0.6c0.3-1,0.7-2,1.2-2.9c1.2-0.7,2.6-1.4,2.7-2.8
				C182.2,36.4,182.1,36,181.8,35.9L181.8,35.9z M95.5,27c-0.1,0-0.1-0.1-0.1-0.1C95.5,26.8,95.6,27,95.5,27z M127.4,59.9
				c4.3,0.3,6.8,0.3,11.2,0.3c0.3,1.7,0.6,3.5,0.9,5.5c-2.3,0-10.2,0.1-12.3,0.1C127.3,63.8,127.3,61.8,127.4,59.9L127.4,59.9z
				 M126.2,78c5,0.3,8.8,0.4,15.4,0.2c0.4,2.5,0.9,5,1.3,7.1c-4,0.1-13.4,0.3-17.6,0.2C125.6,84.1,125.9,80.8,126.2,78L126.2,78z
				 M125.1,88.3c6.6,0.4,11.9,0.4,18.6,0.2c0.3,1.7,0.6,3.3,1,4.8c-7.6,0.3-15.1,0.3-20.4,0.2C124.5,91.8,124.8,90,125.1,88.3z
				 M141.1,75.1c-2.6,0.1-12.1,0.2-14.6,0.1c0.2-2.5,0.4-4.7,0.5-6.7c4.1,0.3,7,0.4,13,0.3C140.2,69.9,141,74.1,141.1,75.1z
				 M137.4,52c0.1,1.4,0.4,3.6,0.6,5c-2.2,0-8.9,0.1-10.7,0.1c0-1.8-0.1-3.5-0.4-5.3C129.3,54.9,135.6,54.5,137.4,52L137.4,52z
				 M123.6,96.2c7.2,0.4,14.5,0.5,21.7,0.2c0.3,1.5,0.6,2.9,0.9,4.1c-1.4-0.1-17.5-0.9-23.4-1.1C123,98.4,123.3,97.3,123.6,96.2
				L123.6,96.2z M125.5,40.3c-0.3-0.6-2.2-0.9-2.4-2.4c-0.2-1.8,1.9-1.9,2.6-1c0.1,0.1,0.5,0.6,0.5,0.7c0.4,0.6,0.9,0.6,1-0.2
				c0.2-1.6-0.3-4.8,1.6-4.5c1.3,0.4,2.7,0.7,4.1,0.9c2.7,0.2,4.8,0,6.5-1.9c0.2,0,0.8-0.1,1-0.1c0.1,0.9,0.1,1.8,0.1,2.7
				c0.1,2.8-0.4,5.5-1.4,8.1c-1.4,3.3-3.3,4.1-3.3,4.1c-0.1,0-0.2,0.1-0.2,0.2c-0.1,0.2-0.1,0,1.5,3.6c0.3,3.1-8.9,4.4-10.1-0.5
				l0.3-2.5C127.3,47.3,126.3,41.9,125.5,40.3L125.5,40.3z M106.4,55.8c2.7,2.7,4.6,6.2,5.4,9.9c0.5,2.6,0.3,4.8-0.6,6.3
				c-0.6,1-1.2,1.8-2.1,2.6c-0.8,0.9-1.9,1.5-3,1.9c-2.4,0.9-5,1.2-7.5,0.9c-3.4-0.4-6.7-1.1-10-2.1c0-0.3-0.1-0.5-0.1-0.9l3-1.1
				c0.6-0.2,1.1-0.4,1.7-0.6c0.3-0.2,0.3-0.6,0.4-1c0.1-1.4-0.1-1.2,0.3-1.6c1-0.8,3.6-1.5,4.8-1.8c0.4-0.1,1-0.2,0.8-0.6
				c-0.1-0.5-0.3-1-0.6-1.4c-1.8-7.7-1.5-7.7-1.8-7.7c-0.1,0-0.1,0.1-0.1,0.2c0,0,0,0,0,0c0.4,2.3,1,5.3,1.4,7.3l-1.1-0.2
				c-0.2,0-0.4,0-0.4-0.1c-0.3-0.7-0.2-1.6-1-2c-0.3-0.2-0.8-0.1-1,0.2c0,0,0,0,0,0.1c-0.4,0.9,0.1,2.8,0,2.8
				c-0.5,0.2-0.9,0.3-1.4,0.4c0-0.2-0.1-0.3-0.3-0.4c-1.8-0.9-3.6-1.6-5.5-2.1c-0.4-3.4-0.9-7.7-1.1-9.1c0.1,0,0.1-0.1,0.2-0.1
				c0.3-0.6,0.5-1.2,0.7-1.9c0.1,0.2,0.3,0.3,0.5,0.2c2.3-1.7,4.6-3.6,6.6-5.6C98.9,50.1,102.9,52.6,106.4,55.8L106.4,55.8z
				 M95.5,64.5c0.6,0.4,0.3,1.4,1,1.9c0.7,0.2,1.4,0.3,2.2,0.3c0.2,0.3,0.3,0.6,0.3,0.9c-0.7,0.2-4,0.9-5.3,1.9
				c0-0.7-0.1-1.3-0.2-1.9c0.7-0.1,1.6,0,1.9-0.5S95.1,64.3,95.5,64.5z M93.8,48.1c-1.5,1.3-5,4.2-6.1,5c-0.5-0.6-1.9-2.2-2.3-2.8
				c0.9-0.7,4.1-2.9,4.5-3.2C91.3,47.3,92.6,47.6,93.8,48.1L93.8,48.1z M80.2,47.1l4.2,3.3c-0.6,0.7-2.2,2-2.9,2.7
				c-1-0.7-3.7-3.6-5.2-5.1C77.6,47.6,78.9,47.3,80.2,47.1z M77.9,35.6c-0.1-0.2-0.1-0.1-1-0.6c-0.6-0.5-1.3-0.9-1.5-1.6
				c0-0.6,0.2-1.3,0.8-1.3c0.5,0.1,0.9,0.3,1.3,0.6c0.8,0.3,1.7,0,2.2-0.6c0.3-0.5,0.4-1.2,0.3-1.8c0.6-0.1,1.1-0.3,1.5-0.8
				c0.2-0.4,0.3-0.8,0.3-1.2c0.8,0.2,1.7,0.2,2.4-0.2c0.5-0.2,1-0.5,1.4-0.9c0.1,0.2,0.2,0.4,0.4,0.6c0.3,0.4,0.8,0.7,1.3,0.6
				c0.3,0,0.6-0.2,0.9-0.3v0.3c0,1,0.8,1.8,1.8,1.8c0.1,0,0.2,0,0.3,0c0,0.1,0,0.1,0,0.2c0.1,0.5-0.1,1.9,0.6,2
				c0.6,0.2,0.3-1.5,1.5-1.7c0.5-0.1,0.9,0.1,1.1,0.6c0.2,0.8,0,1.1-0.4,1.9l-0.3,0.3c-0.4,0.4-0.9,0.9-0.9,1.4
				c0,1.3-0.2,2.6-0.7,3.9c-0.4,1.2-1.2,2.3-2.2,3.2c-0.1,0.1-0.2,0.2-0.1,0.3l0.7,4.2l-4.5,3c-0.8-0.6,0.3,0.3-4-3l0.5-4
				c0-0.2-0.1-0.3-0.2-0.4C78,40.5,78.2,36.2,77.9,35.6z M67.8,52c2.4-1.7,5-3,7.8-3.8c1.6,1.8,3.3,3.6,5,5.2
				c0.4,0.3,0.9,0.7,1.2,0.4c0.1-0.1,0.3-0.3,0.5-0.5c0.2,0.8,0.5,1.5,0.8,2.2c0.1,0.1,0.2,0.2,0.3,0.3c-0.1,1.1-0.3,4.3-0.6,7.9
				c-2.7-0.6-5.5-0.8-8.4-0.7c0-0.2,0.3-2.9,0.3-3c0-0.5,0-1.1,0.1-1.3c0-0.1,0-0.2-0.1-0.2c-0.1,0-0.2,0-0.2,0.1l0,0
				c-0.8,1.6-0.6,2.7-0.5,4.4c-1.9,0.1-3.8,0.6-5.6,1.4c-0.1,0-0.1,0.1-0.1,0.2c0,0.1,0.1,0.1,0.2,0.1c6.1-3,17-0.2,22.9,2.4
				c0.4,0.2,0.8,0.4,1.2,0.6c0.3,1.4,0.3,2.8,0.2,4.1c0,0.4,0,0.5-0.7,0.8c-0.5,0.2-1.1,0.3-1.4,0.5c-1.2,0.4-2.3,0.9-3.5,1.3
				c-6.4,2.1-12.9,3.6-19.5,4.8c-2.2,0-5-0.4-6.6-1.9C54.3,70.6,61.5,56.3,67.8,52L67.8,52z M35.4,44.7c-0.8-0.5-1.5-1.1-2-1.9
				c-1.3-2.1-1.4-5.5-1.1-8c1.2-0.4,2.3-1,3.2-1.9c1-1,1.8-2.1,2.5-3.3l0.5-0.9c0.9,2.2,2.4,4.2,4.3,5.6c0.7,0.3,1.4,0.5,2.2,0.5
				c0,0.7,0.1,1.4,0.2,2c0.1,0.1,0.2,0.2,0.4,0.1c0,0,0,0,0,0c0.4-0.2,0.5-1.3,1.1-2.1c0.2-0.2,0.3-0.4,0.6-0.3
				c0.2,0,0.5,0.1,0.7,0.3c0.9,0.6,0.2,3.2-1.4,4c-0.5,0.2-3,3.2-3.2,4.1c-0.1,0.5-0.1,1,0.1,1.5c0.1,0.8,0.1,1.7,0.2,2.6
				c-1.6,0-5.5,0-7.1,0.1C36.5,44.9,36.6,45.1,35.4,44.7z M51.6,139.6H45c1-12.3,2.2-42.5,1.9-53.2c1.2-0.1,2.2-0.1,3.1-0.2
				C52.1,96.4,53.2,129.6,51.6,139.6L51.6,139.6z M30,138.8C29,128.5,30,95,32.4,86.1c0.4,0.1,3.5,0.3,3.5,0.3
				c-1.3,10.6-2.7,40.9-2.2,52.7C32.4,139,31.1,138.9,30,138.8L30,138.8z M39.5,85.8l-3.3-0.1c0-0.9,0.1-1.9,0.2-2.8l1.2-0.1
				l2.5-0.1C40,83.7,39.8,84.8,39.5,85.8z M29.5,82.9l6.3-0.1c-0.2,1-0.3,1.9-0.2,2.9c-2.3,0-4.7-0.3-7-0.7
				C29.2,83.6,29.4,83.1,29.5,82.9z M36.6,139.3c-0.3-10.8,1.5-43.8,2.6-52.8c1.2,0,2.1,0.1,4.5,0c0,4.1-1.2,48-1.5,53
				C40.7,139.5,36.9,139.3,36.6,139.3z M40.2,85.8c0.2-1,0.3-2,0.3-3.1c5.7-0.1,11.2-0.2,13.7,0.1c0.3,0.6,0.6,1.2,0.9,1.9
				C50.2,85.7,44.7,85.8,40.2,85.8z M23.9,137.6c-1.5-1-2-27.8-0.1-38.5c0.9-4.8,2.5-9.4,4.6-13.8l0.9,0.2
				c-2.4,8.7-3.4,40.5-2.2,52.9C26,138.3,24.9,138,23.9,137.6z M36.4,176.5c-2.4,0.3-3.7,0.5-4.6,0.7c-0.5,0.1-1.1-0.1-1.5-0.4
				c0.7-0.4,0.9-0.4,0.9-0.8c0.1-1.7-1.6-33.3-1.8-36.6c3.9,0.4,8.9,0.7,12.8,0.8C40.8,148.5,37,172.3,36.4,176.5L36.4,176.5z
				 M55.8,174.7c-2.2,0.6-3.6,1-4.5,1.4c-0.5,0.1-1.1,0.1-1.6-0.2c0.6-0.5,0.8-0.5,0.7-0.9c-0.2-1.7-6.3-33-6.6-34.7
				c4.9,0.1,9.5,0.1,12.5-0.2C56.1,149.8,55.8,170.8,55.8,174.7L55.8,174.7z M58,92.4c2.9,10.2,3.2,41.5,1.2,46.5
				c-0.7,0.4-4,0.5-4.8,0.5c1.7-10.8,0.9-43.2-1.1-53.7c0.8-0.1,1.5-0.3,2.2-0.4C56.5,88,57.7,91.7,58,92.4L58,92.4z M51.9,67.1
				c-0.4-0.3-0.7-0.6-1-1c-0.1-0.1-0.1-0.1-0.2,0c-0.1,0.1-0.1,0.1,0,0.2l0,0c1.5,2.4,3.5,3.6,4.6,4.6c-0.3,1.1-0.6,7.4-0.9,11.1
				c-2.3-0.5-14.2,0.1-18.2,0.1c-0.1,0-0.2,0-0.2,0.1c-3.1,0.1-5.6,0.3-6.3,0.3c-0.4-1-0.9-2.5-1.3-3.5c1.4,0.3,2.8,0.2,4.2,0
				c0,0.5,0.1,1,0.3,1.5c0.4,0.4,14.8-0.6,15.3-0.7c0.3-0.1,0.3-0.5,0.3-0.9c0.1-0.9,0.1-2.8,0.2-5c0.5-0.2,0.8-0.8,0.6-1.3
				c0,0,0-0.1-0.1-0.1c0.4-0.5,0.3-1.3-0.2-1.7c0,0,0,0-0.1,0c0.4-0.4,0.4-1,0-1.4c-0.1-0.1-0.1-0.1-0.2-0.2c0-3.1,0-6.2-0.1-7.9
				c-0.1-1.4-0.1-1.6-0.3-1.7c-0.4-0.3-2.2-0.2-3.1-0.1c0-0.4-0.1-0.7-0.3-1c-0.4-0.4-2.2,0-3.2,0c-0.2-0.7-0.3-1.3-1.1-1.6
				c-0.8-0.3-1.7,0.1-2.1,0.9c0,0.1-0.3,0.8-0.3,1c-0.9,0.1-1.9,0.2-2.8,0.4c-0.3,0.1-0.4,0.8-0.4,1.3c-3.3,0.3-3.5,0.3-3.6,0.7
				c-0.1,0.3,0.2,5.8,0.2,6.3c-0.8,0.1-1.6,0.3-2.4,0.5c0.2-1.1,0.3-2.2,0.3-3.2c0-0.5,0-2.5-0.2-2.5s-0.5,2-0.5,2.4
				c-0.1,0.6-0.1,2.9-0.1,3.5c-0.4,0.1-0.7,0.2-1.1,0.4c-0.1,0-0.1,0.1-0.1,0.2c0,0.1,0.1,0.1,0.2,0.1c4.9-1.7,11.5-0.7,15.1,1.1
				l0.2,3.6c-3.1,2.2-8.1,4.9-11.9,5.4c-1.1,0.1-2.3,0.1-3.4-0.1c-6.6-0.8-9.9-5.5-9.5-12.3c0.4-5.2,2-10.3,6.1-13.7
				c2.6-2.2,7.5-2.9,10.9-2.6c0.9,0.1,0.4-1.8,0.6-2.5c0.3-0.1,1.4-0.1,1.7-0.1c0,0.6,0,1.2,0,1.8c0,0.3,0.2,1.2,0.4,1.1
				s0.3-0.8,0.3-1c0-0.2,0-0.2-0.1-1.9h2.9c0,0.6,0,1.2,0,1.7c0,0.3,0.2,1.2,0.4,1.1s0.3-0.8,0.3-1s0-0.6-0.1-1.8H44
				c0.1,0.3,0.1,0.6,0.1,0.9c0,1-0.2,1.1,0,1.3c0.5,0.5,4.7-1.6,17.1,8.7c-2.3,3.9-4.1,9-3.5,13.5C55.8,70.6,56.2,71,51.9,67.1z
				 M32.4,67.2c-0.1-2.9-0.2-5.5-0.2-5.9c0.7-0.1,2.2-0.3,2.9-0.3c0,1.3,0.1,1.4,0.9,1.4c1.5,0.2,8.4,0,9.1-0.6
				c0.1-0.1,0.1-0.1,0.1-0.2c0.1-0.5,0.1-1,0-1.4c0.8,0,1.7,0,2.5,0C48,61.8,48,67.4,48,69c-0.3,0-0.6,0-1,0.1
				c0.1-0.7,0.3-1.9-0.4-2c-0.4-0.1-0.8,0-1.1,0.3c-0.4,0.6-0.6,1.2-0.6,1.9c-0.4,0-0.8,0-1.2-0.1c0-0.1-0.1-0.2-0.2-0.2
				C40,67.5,36.2,66.8,32.4,67.2L32.4,67.2z M48.6,72c-0.3,0.2-0.6,0.1-1.2,0.1c-0.2,0-0.4,0.2-0.4,0.4c0,0.2,0.2,0.4,0.4,0.4
				c0.3,0,0.6,0,0.9,0c0.1,0,0.3,0.1,0.3,0.1c0,0.8-1.5,0.5-2.2,0.1c-0.8-0.1-1.7,0-2.5,0.2l-0.2-3.6c0.5,0.1,1,0.2,1.4,0.1
				c0.1,0,0.1-0.1,0.1-0.2c0.2-0.7,0.4-2.1,1.1-1.9c0,0.5,0,1.1-0.2,1.6c-0.1,0.5,0.1,0.7,0.5,0.6c0.4-0.2,0.8-0.3,1.1-0.3
				c0.2,0,0.4,0,0.5,0.3s-0.2,0.4-0.4,0.4c-0.2,0.1-1.1,0.2-1.1,0.2c-0.2,0.1-0.3,0.3-0.2,0.5c0,0.2,0.2,0.3,0.4,0.3
				c1-0.1,0.9-0.2,1.2-0.1c0.3,0.1,0.5,0.3,0.5,0.6C48.7,71.9,48.7,72,48.6,72L48.6,72z M43.9,73.7c0.8-0.1,1.5-0.2,2.3-0.2
				c0.5,0.3,1.2,0.5,1.8,0.6c0,1.5,0,4.3-0.1,5.1C46,79.4,35,80.5,33.1,80.3c-0.1-0.4-0.2-0.9-0.2-1.3
				C37.7,77.9,43.6,74.1,43.9,73.7L43.9,73.7z M75,189.6c-1,0.1-2,0-2.9-0.2V189c0-0.1-0.1-0.2-0.1-0.3c-0.2-0.2-0.1-0.1-6.1,0.7
				l-2,0.2c-0.2,0-0.4,0.1-0.4,0c-0.5-0.1-1.1-0.9-0.9-1.2c1.6-1.3,3.3-2.5,5.1-3.5c2.7,0.3,5.9,0.5,7.9,0.6
				C75.4,186.9,75.3,188.2,75,189.6L75,189.6z M104.2,184.6c0.8,0,1.6,0,2.4-0.1c1.2,0.7,5,3.1,6,4.1c0.2,0.2,0,0.5-0.1,0.7
				c-0.6,0.8-1,0.6-1.1,0.6c-1.5-0.1-6.3-0.8-7.8-1c-0.2,0-0.4,0.1-0.4,0.3c0,0,0,0,0,0v0.4c-1,0.2-2,0.2-2.9,0.2
				c-0.3-1.7-0.5-3.4-0.5-5.1C99.6,184.3,99.3,184.7,104.2,184.6L104.2,184.6z M100,87.4c-4.4,0-25.5,0.5-29.1,0.9
				c-0.1-1.5-1.1-7.5-1.3-9c4.2-0.7,8.3-1.7,12.4-2.8c-0.1,0.6-0.1,1.2-0.1,1.8c1,1.3,2.2,2.4,3.5,3.5c0.1,0.1,0.3,0.1,0.5,0.1
				c1.2-1,2.3-2.3,3.1-3.6c0-0.7,0-1.4-0.1-2.1c2.4,0.9,8.9,2.2,12.2,2.2C100.8,80,100.1,86.5,100,87.4z M109.2,95.4
				c2.2-15.2,4.3-20.3,4.3-21.4c1.4-0.6,2.6-1.4,3.8-2.4c0.4-0.4,0.9-0.8,1.3-1.3c0.1-0.1-0.1-0.4-0.2-0.2c-0.1,0.1-0.5,0.3-0.7,0.5
				c-2.9,2-3.6,2.7-7.1,3.9c0.8-0.7,1.3-1.7,1.7-2.7c1.5-5.1-0.6-10.4-3.9-14.5c3.9-2.4,8.1-4.4,12.5-6c1.7-0.6,3.5-1,5.3-1.3
				c0.1,0.4,0.2,0.7,0.4,1.1c1.4,8.5-1.3,33.2-3,41.4c-0.9,4.8-2.7,11.7-4.8,16.2c-0.1,0.3-0.3,0.6-0.5,1c-1.1,0.4-8.7-0.3-9.9-0.4
				C107.4,107.7,108.9,97.2,109.2,95.4L109.2,95.4z M145.7,174.9h-6.6c0-0.3-4.9-34.7-5-35.2c0.6-3.6,4.3-22.6,4.2-27.4
				c0-0.1-0.1-0.1-0.1-0.1c-0.1,0-0.1,0.1-0.1,0.1c0,0,0,0,0,0c0,0.5-0.2,1.5-0.4,2.8c-3.2,20-5.7,31.6-11.2,59.3l-6.7-0.1
				c-4.4-27.7-6.5-41.1-6.6-63.8c0.9,0.1,4.7,0.3,5.5-0.1c0.3-0.1,0.5-0.7,0.7-1c1.3-3,2.4-6,3.2-9.1c5.9,0.3,21.1,1,23.8,1.2
				c1.1,5.3,1.2,5.6,1.5,5.7c1,0.3,2,0.4,3,0.5C150.9,125,150,157.8,145.7,174.9L145.7,174.9z M178.6,42.9
				c-1.2,2.8-3.7,16.8-15.4,24.9c-2.3,1.6-6.4,2.2-9.2,2.2c-0.1-1.4-0.4-2.7-0.8-4c-0.2-0.5-0.4-1.2-0.6-1.5c0-0.1-0.1-0.1-0.2-0.1
				c-0.1,0-0.1,0.1-0.1,0.1c0.5,3.8,0.6,2.4,1.1,5.9c0,0,1.4,9.7,1.5,10.1c0.7,6.1,1.1,23.8,0.4,26.3c-2.4,0.1-4.8-0.1-7.1-0.6
				c-0.9-3.1-10-47.9-10.2-55.5c2.3,0.4,11.1,3.6,18.5,3.8c6.6,0.2,16.5-13.8,16.6-13.8C173.9,40.7,177.6,42.3,178.6,42.9
				L178.6,42.9z M181.5,36.6c-0.1,1.1-1.4,1.9-2.3,2.5c-0.3,0.2-1.1,2.8-1.2,3.1c-1.2-0.6-2.4-1-3.7-1.5c0.9-1.3,1.6-2,1.3-2.3
				c-0.6-0.5-1.7-1.3-1.1-1.9c0.1,0,0.1,0,0.2,0.1c0.8,0.4,1.5,1.4,1.8,0.8c0.2-0.8,0.4-1.5,0.6-2.2c0.5-1.1,0.7-0.9,0.6,0.2
				c-0.1,0.7-0.3,1.4-0.5,2.1c-0.1,0.2,0,0.4,0.2,0.5c0.2,0.1,0.4,0,0.5-0.2c0.2-0.8,0.5-1.5,1-2.2c0.4-0.6,0.9-0.8,0.9-0.4
				c-0.1,0.8-0.4,1.5-0.9,2.1c-0.1,0.2-0.2,0.3-0.2,0.5c0,0.2,0.1,0.4,0.3,0.4c0.1,0,0.3,0,0.4-0.2c0.3-0.4,0.5-0.7,0.9-1
				C180.8,36.5,181.5,36.2,181.5,36.6L181.5,36.6z"/>
			<path d="M84.1,37.3c0.4,0.8,2.3,0.3,1.9-0.1c-0.1-0.1-0.2-0.1-0.2,0c-0.1,0-0.2,0-0.4,0c-0.2,0-0.5-0.1-0.7-0.2v-3.3
				c0-0.1-0.1-0.1-0.2-0.1c-0.1,0-0.1,0.1-0.1,0.1c-0.3,0.9-0.4,1.9-0.4,2.9C84.1,36.9,84.1,37.1,84.1,37.3z M81.6,35.2
				c0-0.2,0-0.5-0.1-0.7c0-0.2-0.2-0.3-0.4-0.3c-0.2,0-0.3,0.2-0.3,0.4c0,0,0,0,0,0c0,0.2,0,0.3,0,0.6c0,0.2,0.2,0.4,0.4,0.3
				C81.5,35.5,81.6,35.4,81.6,35.2C81.6,35.2,81.6,35.2,81.6,35.2z M87.4,35.1c0,0.2,0.2,0.4,0.4,0.4s0.4-0.2,0.4-0.4v-0.4
				c0.1-0.2,0.1-0.4-0.1-0.5c-0.1-0.1-0.3-0.1-0.4,0C87.4,34.4,87.4,34.8,87.4,35.1z M85.7,40.4c-0.3,0.2-0.6,0.3-1,0.4
				c-0.2,0-0.2,0.3,0,0.3c0.2,0.1,0.5,0.2,0.7,0.2c0.5-0.1,1-0.4,1.2-0.8c0.1-0.2,0.2-0.5,0.1-0.7c0-0.1,0-0.2-0.1-0.2
				c-0.1,0-0.2,0-0.2,0.1l0,0C86.3,40,86,40.2,85.7,40.4z M133.9,41c0.7,0.2,1.7,0.3,2.2-0.2c0.5-0.5,0.2-1.9,0.2-2.4
				c-0.1-1.1-0.4-2.2-0.7-3.3c0-0.1-0.1-0.1-0.2-0.1s-0.1,0.1-0.1,0.2l0,0c0,0.3,0.1,1.6,0.1,1.9c0.2,1.1,0.2,2.2,0.2,3.3
				c-0.2,0.1-0.4,0.2-0.6,0.2c-0.9,0.1-1.1-0.1-1.1,0.2C133.8,40.9,133.9,41,133.9,41C133.9,41,133.9,41,133.9,41z M132.5,35.3
				c0-0.3-0.8-0.4-1.3-0.3s-1.2,0.7-1,0.9C130.3,36.1,132.5,35.6,132.5,35.3z M131.9,37.4v0.7c0,0.2,0.2,0.4,0.4,0.4
				s0.4-0.2,0.4-0.4v-0.7c0-0.2-0.2-0.4-0.4-0.4C132.1,37,131.9,37.2,131.9,37.4z M139.3,35.7c0.1-0.1-0.2-0.7-0.9-0.9
				c-0.7-0.2-1.2,0.1-1.2,0.3C137.3,35.2,139.2,35.9,139.3,35.7z M131.5,42.9c-0.2,0.1-0.2,1.3,1,1.7c0.6,0.2,1.4,0.1,1.4-0.1
				c0-0.2-1.2-0.5-1.6-0.7C132,43.4,131.7,42.8,131.5,42.9z M138.1,36.9c-0.2,0-0.4,0.2-0.4,0.4c0,0,0,0,0,0V38
				c0,0.2,0.2,0.4,0.4,0.3c0.2,0,0.3-0.2,0.3-0.3v-0.7C138.5,37.1,138.3,36.9,138.1,36.9C138.1,36.9,138.1,36.9,138.1,36.9z"/>
		</g>
	</g>
</g>
<path d="M186.2,22c-2.3-2.4-5.1-4.4-8.4-3.8c-2.4-2.6-6.5-2.7-9.1-0.3c-0.1,0.1-0.1,0.1-0.2,0.2c-1.1,0.8-1.9,2-2.2,3.4
	c-0.1,0.4,0.2,0.5,0.2,0.3h0c0.4-1.4,1.2-2.5,2.3-3.3c2.3-2.2,5.8-2.2,8.1-0.1c-1,0.3-1.9,0.9-2.5,1.7c-1.6,1.9-3,5.2-1,6.6
	c1.7,1.2,3.3-0.9,4.4-2.7c1-1.8,1.5-3.6,0.4-5.3c3-0.5,5.6,1.3,7.8,3.4c0.1,0.1,0.2,0.1,0.2,0C186.3,22.2,186.3,22.1,186.2,22z
	 M175.3,26c-0.5,0.3-0.9,0.5-1.4,0.2c-1.7-1.2,0-4.4,1.4-5.9c0.5-0.6,1.3-1.1,2.1-1.3c0.3,0.4,0.5,0.9,0.6,1.4
	C178.3,22.3,176.5,25.1,175.3,26z"/>
<path d="M155,16.8c-0.2-1.7-2.3-2.8-4.4-0.7c-0.8,0.8-0.4,2.1,0.5,2.8C153.1,20.7,155.1,18.5,155,16.8z M151.5,18.4
	c-0.5-0.5-0.9-1.3-0.4-1.8c1.1-1.1,2.2-1.1,2.8-0.5C155.2,17.4,153.5,20.6,151.5,18.4z"/>
<path d="M181.4,121.8c-0.7-0.5-1.7-0.3-2.2,0.4c-0.6,0.6-0.7,1.5-0.1,2.1c0.3,0.3,0.7,0.5,1.1,0.5c0.6,0.1,1.2-0.3,1.5-0.8
	C182.2,123.3,182.1,122.4,181.4,121.8z M180.9,124.3c-0.8,0.1-1.9-0.6-1.1-1.5l0,0c0.5-0.5,1-0.6,1.3-0.4
	C181.7,122.9,181.9,124,180.9,124.3z"/>
<path d="M184.5,129c-0.2-0.5-7.6-1.6-9.2-1.3c-0.2,0-0.4,0.1-0.5,0.3c-0.2,0.4-0.3,0.9-0.3,1.3c0,0.1,0.1,0.3,0.3,0.3
	c0.7,0.3,8.3,2.9,8.6,2.2c0.4-0.8,0.8-1.7,1.1-2.6C184.5,129.1,184.5,129,184.5,129z M183.2,131.6c-0.9-0.1-4.6-1.5-7.9-2.7
	c0-0.2,0-0.4,0.1-0.5c2.8,0.1,5.7,0.4,8.5,0.9C183.7,130.1,183.5,130.9,183.2,131.6z"/>
<path d="M181.1,158.5c0-0.1-0.1-0.1-0.2-0.1c-0.1,0-0.1,0.1-0.1,0.2c1.8,3.5,0.7,6.2-1.1,7.7c-0.7-2.5-2.4-5.2-4.7-4.3
	c-1.1,0.4-1.3,1.2-1.7,2.3c-1.6,4.4,2.4,5.5,5.8,3.3c0.8,4.3-0.5,9-4.5,11.4c-0.1,0-0.1,0.1-0.1,0.2c0,0.1,0.1,0.1,0.2,0.1
	c4.4-2.4,5.9-7.5,5-12.2C181.9,165.4,183.2,162.3,181.1,158.5z M174.4,167.6c-0.7-0.5-0.9-1.5-0.3-3c0.1-0.5,0.3-0.9,0.6-1.3
	c1-1.3,3.3-0.5,4.4,3.6C177.8,167.7,175.6,168.4,174.4,167.6z"/>
<path d="M60.6,15c-0.3-0.7-3.5-6.4-4.1-6.7c-0.1-0.1-0.3-0.1-0.4,0c-0.9,0.5-1.8,1.2-2.5,2c-0.2,0.4,4.1,6,4.8,6.4
	c0.5,0.4,1.6-0.5,2-1C60.6,15.5,60.7,15.3,60.6,15z M58.7,16c-0.2-0.2-0.6-0.6-1.1-1.2c-1.3-1.4-2.6-2.8-3.7-4.4
	c0.7-0.6,1.5-1.1,2.3-1.5c0.4,0.6,3.5,6.2,3.6,6.3C59.5,15.6,59.1,15.8,58.7,16z"/>
<path d="M106.3,18.2c0.1,1.1,0.1,2,0.1,2.9c0,0.3,0.2,0.5,0.5,0.5c0.3,0,0.5-0.2,0.5-0.5c0-0.9-0.1-1.9-0.1-2.9
	c0-0.3-0.3-0.5-0.5-0.5C106.5,17.7,106.3,17.9,106.3,18.2z"/>
<path d="M103.7,15.7c0.3,0,0.5-0.2,0.5-0.5s-0.2-0.5-0.5-0.5c-1.2,0-2.2,0.1-3.2,0.1c-0.3,0-0.5,0.2-0.5,0.5c0,0.3,0.2,0.5,0.5,0.5
	C101.5,15.8,102.6,15.8,103.7,15.7z"/>
<path d="M106,9.5c0.1,0.9,0.1,1.9,0.1,2.9c0,0.3,0.2,0.5,0.5,0.5c0.3,0,0.5-0.2,0.5-0.5c0-1-0.1-2-0.1-2.9c0-0.3-0.3-0.5-0.5-0.5
	C106.2,9,106,9.3,106,9.5z"/>
<path d="M113.4,15.6c0.3,0,0.5-0.2,0.5-0.5c0,0,0,0,0,0c0-0.3-0.2-0.5-0.5-0.5c-1.2,0.1-2.2,0.1-3.2,0.1c-0.3,0-0.5,0.2-0.5,0.5
	s0.2,0.5,0.5,0.5C111.2,15.7,112.3,15.6,113.4,15.6z"/>
<path d="M180.1,93.9C180,93.9,180,93.9,180.1,93.9c-3.3-0.9-6.6,1-7.4,4.3c0,0,0,0.1,0,0.1c-0.7,3.4,1.4,6.7,4.8,7.5
	c3.4,0.7,6.7-1.4,7.5-4.8C185.5,97.7,183.3,94.5,180.1,93.9z M182.5,100.5c-0.7,2.7-3.2,4.4-5.9,4.2c-2.5-1-3.9-3.6-3.4-6.3
	c0.6-2.7,3.2-4.6,5.9-4.4C181.7,95.1,183.1,97.8,182.5,100.5L182.5,100.5z"/>
<path d="M191.4,96.8c0-0.3-0.4-0.5-0.7-0.6c-0.7-0.2-1.5-0.3-2.2-0.2c-0.3-0.7-0.7-1.4-1.1-2c0.5-0.5,2-1.8,1.6-2.4
	c-1.2-1.5-2.7-2.7-4.3-3.7c-0.7-0.4-1.4-0.6-2.2-0.7c-0.5,0.1-1.7,2.1-2,2.5c-0.2,0-0.8-0.2-0.9-0.2c0-0.6-0.2-2.7-0.7-2.9
	c-0.6-0.2-1.2-0.4-1.8-0.4c-0.6-0.1-5.7,0.9-6.1,1.5c-0.2,0.5,0.3,2.2,0.5,2.7c-0.4,0.2-0.9,0.5-1.2,0.8c-0.8,0.6-0.6,0.5-0.7,0.5
	c-0.2-0.1-0.4-0.1-0.6-0.2c-0.6-0.4-1.4-0.5-2.1-0.4c-0.7,0.2-2.5,4.2-2.8,5.2c-0.1,0.3-0.1,0.5-0.1,0.8c0.2,0.5,1.5,1,2,1.1
	c-0.1,1-0.1,2.1,0,3.1c-0.7,0.2-2.2,0.6-2.1,1.4c0.1,0.7,2,5.5,2.7,5.9c0.9,0.5,1.9,0.6,2.8,0.3c0.3-0.1,0.5-0.3,0.8-0.4
	c0.3,0.2,0.7,0.5,1,0.7c-0.2,0.6-0.8,2-0.6,2.6c0.1,0.3,0.4,0.4,0.7,0.6c1,0.4,6.5,1.7,7.4,1.5c0.3,0,0.5-0.4,0.6-0.7
	c0.2-0.7,0.3-1.4,0.3-2.2c0.4,0,0.8-0.1,1.2-0.2c0.2,0.4,0.6,0.8,0.9,1.2c0.4,0.3,0.8,0.1,1.2-0.2c0.2,0.3,0.6,0.7,0.9,0.7
	c0.9,0.1,4.7-3.4,5.1-4.2c0.3-0.6-0.9-1.7-1.4-2.2c0.6-0.9,1-1.8,1.3-2.8c0.6,0.1,1.2,0.1,1.8,0.1c0.3,0,0.6-0.1,0.7-0.3
	C191.9,102.1,191.8,97.9,191.4,96.8z M190.9,102.9c-0.7,0.1-1.4,0-2.1-0.1c-0.2,0-0.3,0.1-0.3,0.2c-0.3,1.1-0.8,2.1-1.5,3
	c-0.1,0.1-0.1,0.3,0,0.4c0.6,0.4,1,1,1.4,1.6c-0.4,0.7-3.5,3.5-4.4,3.8c-0.1,0-0.5-0.5-0.6-0.6c-0.3-0.4-0.6-0.9-0.8-1.4
	c-0.1-0.1-0.2-0.2-0.4-0.2c-2.3,0.9-3.2,0.4-3.2,0.9c0,0.9-0.1,1.7-0.4,2.6c-1.9-0.2-3.8-0.6-5.6-1.2c0.1-0.9,0.3-1.7,0.7-2.5
	c0.2-0.5-0.7-0.4-2.5-2.2c-0.1-0.1-0.3-0.1-0.4,0c-0.8,0.7-1.9,1.3-2.1,1.2c-0.4-0.2-2.3-4.5-2.4-5.4c0.6-0.4,1.2-0.7,1.9-0.8
	c0.2,0,0.2-0.2,0.2-0.3c-0.2-1.1-0.2-2.3,0-3.4c0-0.1-0.1-0.3-0.2-0.3c-0.6-0.2-1.2-0.4-1.7-0.7c-0.2-0.1-0.2-0.1-0.1-0.3
	c0.5-1.9,1.4-3.7,2.5-5.3c0.4-0.1,1.6,0.7,2,1c0.1,0.1,0.2,0.1,0.3,0c0.4-0.4,0.8-0.7,1.2-1.1c1.2-0.9,1.6-0.8,1.4-1.1
	c-0.4-0.8-0.6-1.7-0.6-2.6c0.1-0.1,0.3-0.2,0.4-0.2c0.8-0.3,1.5-0.5,2.3-0.7c1-0.3,1.9-0.4,2.9-0.5c0.2,0.1,0.3,0.8,0.4,1
	c0.3,1.6,0.1,1.9,0.3,2c2.3,0.2,2.8,0.9,2.9,0.6c0.4-0.8,1-1.5,1.6-2.2c0.2-0.2,0.2-0.2,0.7,0c1.5,1,2.9,2.2,4,3.6
	c0.1,0.2-0.9,1.3-1.7,2c-0.3,0.2,0.1,0.3,0.8,1.7c0.7,1.3,0.5,1.7,0.9,1.6c0.7-0.2,1.4-0.2,2.2-0.2v0
	C191.2,98,191.3,101.9,190.9,102.9z"/>
</svg>
