<?xml version="1.0" encoding="utf-8"?>
<!-- Generator: Adobe Illustrator 27.0.0, SVG Export Plug-In . SVG Version: 6.00 Build 0)  -->
<svg version="1.1" id="Layer_1" xmlns="http://www.w3.org/2000/svg" xmlns:xlink="http://www.w3.org/1999/xlink" x="0px" y="0px"
	 viewBox="0 0 256 256" style="enable-background:new 0 0 256 256;" xml:space="preserve">
<style type="text/css">
	.st0{fill-rule:evenodd;clip-rule:evenodd;}
</style>
<g>
	<path class="st0" d="M186.94,226.77c0-0.05-0.03-0.1-0.06-0.14c-0.03-0.04-0.07-0.08-0.12-0.1c-0.05-0.03-0.1-0.04-0.15-0.04
		s-0.1,0.01-0.15,0.04c-3.89,1.43-7.62,3.25-11.13,5.44c-0.11,0.08-0.2,0.18-0.25,0.3c-0.07,0.12-0.09,0.25-0.09,0.38
		c0,2.48-0.3,12.88,2.23,12.06c3.51-1.1,6.88-2.62,10.01-4.53c0.21-0.15,0.35-0.37,0.39-0.63
		C188.22,235.29,187.99,230.95,186.94,226.77z M185.92,238.87c-2.69,1.48-5.5,2.72-8.41,3.7c-0.62-3.11-0.88-6.27-0.77-9.43
		c3.04-2.14,6.24-4.04,9.57-5.69C186.72,231.26,186.59,235.1,185.92,238.87z M150.25,203.63c-0.08-0.06-0.17-0.1-0.27-0.1
		c-0.1,0-0.2,0.04-0.27,0.1c-3.88,1.39-7.59,3.2-11.08,5.4c-0.21,0.17-0.35,0.41-0.39,0.68c-0.1,2.28-0.29,12.69,2.29,11.86
		c3.48-1.12,6.82-2.63,9.96-4.52c0.11-0.07,0.21-0.16,0.28-0.27c0.08-0.11,0.13-0.23,0.16-0.36
		C151.5,212.15,151.27,207.82,150.25,203.63z M149.18,215.74c-2.68,1.46-5.48,2.68-8.36,3.64c-0.67-3.08-0.94-6.23-0.83-9.38
		c3.06-2.14,6.28-4.04,9.62-5.69C150,208.12,149.85,211.97,149.18,215.74z M44.64,242.22c-0.04-0.13-0.11-0.24-0.21-0.33
		c-3.07-3.02-6.7-5.41-10.69-7.05c-0.24,0-0.44,0-0.53,0.29c-1.23,3.93-1.96,7.99-2.19,12.1c-0.02,0.14,0,0.28,0.05,0.4
		c0.05,0.13,0.13,0.24,0.24,0.33c2.87,2.54,6.16,4.57,9.72,5.98c0.13,0.06,0.27,0.1,0.41,0.1c0.15,0,0.29-0.03,0.42-0.09
		s0.24-0.15,0.34-0.26c0.09-0.11,0.16-0.24,0.19-0.38c1.18-3.47,1.94-7.05,2.29-10.69C44.7,242.48,44.69,242.35,44.64,242.22z
		 M40.98,251.8c-2.92-1.32-5.68-2.98-8.21-4.96h-0.1c0.19-3.72,0.64-7.42,1.36-11.08c3.31,1.95,6.34,4.33,8.99,7.1
		C42.58,245.89,41.9,248.88,40.98,251.8z M142.38,154.63c-2.74-2.73-6.44-4.27-10.31-4.27s-7.58,1.54-10.31,4.27
		c-2.74,2.74-4.27,6.45-4.27,10.31c0,3.87,1.53,7.58,4.27,10.32c2.73,2.73,6.44,4.27,10.31,4.27s7.57-1.54,10.31-4.27
		c2.73-2.74,4.27-6.45,4.27-10.32C146.65,161.08,145.11,157.37,142.38,154.63z M141,173.57c-2.4,2.26-5.57,3.51-8.86,3.51
		c-3.29,0-6.46-1.25-8.86-3.51c-2.39-2.25-3.84-5.34-4.04-8.63c-0.11-1.76,0.14-3.52,0.74-5.18c0.6-1.66,1.53-3.18,2.74-4.47
		c1.21-1.28,2.67-2.31,4.29-3.01s3.36-1.06,5.13-1.06c1.77,0,3.51,0.36,5.13,1.06s3.08,1.73,4.29,3.01
		c1.21,1.29,2.14,2.81,2.74,4.47c0.6,1.66,0.86,3.42,0.75,5.18C144.84,168.23,143.4,171.32,141,173.57z M77.52,103.43
		c-0.08-0.08-0.18-0.12-0.28-0.12c-1.21-0.22-2.47-0.02-3.55,0.59c-1.6,0.73-2.93,1.96-3.79,3.5c-0.06,0.02-0.11,0.06-0.15,0.1
		c-0.05,0.05-0.07,0.11-0.09,0.17c-0.01,0.06-0.01,0.13,0,0.19c0.02,0.06,0.05,0.11,0.09,0.16c0.04,0.05,0.1,0.08,0.16,0.11
		c0.06,0.02,0.12,0.02,0.18,0.02c0.07-0.01,0.13-0.04,0.18-0.08c0.05-0.03,0.09-0.08,0.12-0.14c1.7-0.78,5.98-3.55,6.85-3.84
		c0.1,0,0.2-0.04,0.28-0.11c0.07-0.08,0.11-0.17,0.11-0.28C77.63,103.6,77.59,103.5,77.52,103.43z M102.9,108.71
		c-0.35-0.74-0.83-1.41-1.4-1.99c-1.26-1.13-2.81-1.88-4.48-2.14c-0.82-0.13-1.65-0.13-2.48,0c-0.12,0-0.23,0.06-0.31,0.15
		c-0.09,0.09-0.13,0.21-0.12,0.33c0.01,0.13,0.06,0.24,0.15,0.32c0.09,0.08,0.21,0.13,0.33,0.12c2.76,0.84,5.37,2.1,7.73,3.74
		C102.66,109.63,103.25,109.24,102.9,108.71z M98.68,119.64v3.46c0,0.2,0.04,0.4,0.11,0.59c0.09,0.19,0.2,0.36,0.34,0.51
		c0.15,0.14,0.32,0.25,0.51,0.33c0.19,0.08,0.39,0.12,0.59,0.12c0.2,0,0.41-0.04,0.6-0.12c0.19-0.08,0.36-0.19,0.5-0.33
		c0.15-0.15,0.26-0.32,0.34-0.51c0.08-0.19,0.12-0.39,0.12-0.59v-3.21C102.08,117.65,98.77,117.65,98.68,119.64z"/>
	<path class="st0" d="M248.4,256c-4.36-9.2-9.2-18.66-14.16-26.9c3.69-8.7-17.59-28.14-24.65-34.36
		c-29.45-25.91-35.58-30.77-56.67-36.16c-1.56-0.39-2.38-2.05-5.2-2.68c-1.74-2.91-4.26-5.27-7.29-6.8c0.61-0.19,1.18-0.47,1.7-0.83
		c3.08,0.04,6.1-0.87,8.64-2.61c2.54-1.74,4.48-4.22,5.55-7.11c5.93-5.59,19.78-20.66,14.92-36.26c0,0,20.61,4.86,24.74-15.11
		c4.14-19.98-0.34-44.04-24.74-48.61c-24.4-4.57-48.6,0-52.2,24.79c0,0-34.36-5.74-50.64,14.14c-14.59,17.55-12.79,33.69-5.79,44.72
		c-1.56,9.99-1.44,20.18,0.34,30.13c2.38,11.52,14.58,18.38,25.47,22.22c-14.97,8.79-63.87,38.88-72.37,53.9
		c-3.39,6.99-4.05,15-1.85,22.46c-0.42,1.53-0.87,3.23-1.33,5.07h4.15c-3.04-9.5-3.84-18.88,0.24-26.27
		c8.22-14.87,57.5-45.54,72.13-54.24l2.48,0.78c-1.04,14,4.54,53.18,13.15,79.73h1.88c-1.57-4.82-2.95-9.71-4.14-14.65
		c33.34-26.49,48.7-58.62,50.65-80.98c8.47,1.88,16.53,5.31,23.76,10.11c17.86,13,34.36,27.77,49.24,44.09
		c2.54,2.97,4.54,6.36,5.93,10.01c-1.79-2.25-4.19-3.96-6.9-4.93c-2.71-0.97-5.64-1.16-8.46-0.56
		c-6.06,0.61-19.78,16.36-36.51,36.91h2.65c7.05-8.63,13.57-16.4,19.13-22.43c-4.65,6.64-8.92,14.11-12.69,22.43H248.4z
		 M144.84,154.38c1.69,2.1,2.85,4.58,3.36,7.22c0.5,2.65,0.35,5.38-0.44,7.95c-0.79,2.58-2.21,4.92-4.12,6.82h0.04
		c-2,1.98-4.5,3.41-7.22,4.15c-2.72,0.74-5.59,0.77-8.33,0.08s-5.25-2.08-7.3-4.02c-2.05-1.95-3.56-4.39-4.39-7.09
		s-0.95-5.56-0.34-8.32c0.6-2.76,1.9-5.32,3.78-7.43s4.27-3.69,6.94-4.61c2.67-0.92,5.53-1.13,8.31-0.62
		c0.99,0.68,2.15,1.05,3.35,1.07C140.96,150.64,143.15,152.28,144.84,154.38z M143.34,143.22c-0.01,0.6-0.14,1.2-0.39,1.76
		c-0.25,0.55-0.61,1.05-1.05,1.46c-0.44,0.41-0.97,0.73-1.54,0.94c-0.52,0.18-1.07,0.26-1.62,0.25c-1.15-0.02-2.26-0.47-3.1-1.28
		c-0.85-0.82-1.35-1.95-1.38-3.13c-0.07-0.64,0-1.28,0.2-1.89c0.2-0.61,0.52-1.17,0.95-1.64c0.43-0.48,0.95-0.86,1.53-1.12
		c0.59-0.26,1.22-0.39,1.86-0.39s1.27,0.13,1.86,0.39c0.58,0.26,1.11,0.64,1.53,1.12c0.43,0.47,0.75,1.03,0.95,1.64
		C143.34,141.94,143.41,142.58,143.34,143.22z M134.35,205.72c-5.82,3.19-12.28,5.03-18.91,5.4c-6.63,0.36-13.26-0.77-19.39-3.31
		c-0.68-4.08-4.47-29.5-3.35-31.88c0.05-0.07,0.07-0.16,0.07-0.24c0-0.09-0.02-0.18-0.07-0.25c-7.28-2.32-14.09-5.94-20.08-10.69
		h0.25c-5.88-5.15-8.65-9.48-9.19-24.64c-0.15-6.32,0.11-12.63,0.78-18.91c2.67-24.74,16.91-43.06,40.1-49.63
		c0,0-2,43.36,22.84,45.84c0,0-2.77,14.82,5.3,16.38c8.07,1.55,8.12-8.7,14.58-9.29c7.92-0.73,10.31,6.91,7.1,15.36
		c-2.67,3.5-6.47,5.96-10.74,6.95c0.79-1.1,1.22-2.43,1.21-3.79c-0.14-1.57-0.86-3.04-2.02-4.1c-1.17-1.07-2.69-1.66-4.27-1.66
		s-3.11,0.59-4.27,1.66c-1.17,1.06-1.89,2.53-2.03,4.1c0,1.58,0.57,3.1,1.61,4.28c-3.86-0.31-7.71,0.65-10.97,2.72
		c-3.26,2.07-5.76,5.15-7.11,8.77c-1.36,3.62-1.5,7.59-0.41,11.29c1.1,3.71,3.38,6.96,6.49,9.26c3.11,2.29,6.88,3.52,10.74,3.48
		c3.87-0.04,7.62-1.33,10.68-3.69c3.06-2.35,5.28-5.64,6.3-9.37c1.03-3.73,0.81-7.69-0.61-11.28c0.92,0.6,1.94,1.02,3.02,1.26
		C149.88,176.26,143.83,192.03,134.35,205.72z"/>
	<path class="st0" d="M78.21,199.02c-2.68-3.42-6-6.29-9.77-8.46c-0.03-0.04-0.07-0.07-0.11-0.1c-0.05-0.02-0.1-0.03-0.15-0.03
		c-0.06,0-0.1,0.01-0.15,0.03c-0.05,0.03-0.09,0.06-0.12,0.1c-1.81,3.71-3.22,7.6-4.18,11.62c-0.09,0.23-0.09,0.49,0,0.72
		c2.59,3.03,5.7,5.56,9.19,7.49c0.22,0.09,0.48,0.1,0.71,0.02s0.43-0.24,0.55-0.46c1.73-3.23,3.09-6.66,4.03-10.2
		C78.31,199.51,78.31,199.25,78.21,199.02z M72.87,208.2c-2.62-1.79-5.01-3.88-7.15-6.22c0.66-3.64,1.59-7.23,2.77-10.74h0.2
		c2.94,2.47,5.53,5.33,7.68,8.51C75.44,202.66,74.26,205.49,72.87,208.2z M75.98,252.97c-0.05-0.03-0.11-0.04-0.16-0.04
		c-0.06,0-0.11,0.01-0.17,0.04c-0.05,0.02-0.09,0.05-0.13,0.1c-0.03,0.04-0.06,0.09-0.08,0.14c-0.27,0.92-0.52,1.85-0.74,2.79h1.1
		c0.1-0.72,0.2-1.44,0.32-2.16c1.17,0.66,2.3,1.39,3.39,2.16h2.3C79.97,254.8,78.02,253.79,75.98,252.97z M81.43,133.95
		c-0.03-0.05-0.06-0.1-0.11-0.14c-0.05-0.04-0.1-0.07-0.16-0.09c-0.05-0.02-0.11-0.03-0.18-0.03c-1.6,0.28-3.25,0.28-4.86,0
		c-1.75-0.48-1.02-0.53,2.92-10.64c1.13-2.94,2.26-6.39,2.26-6.46c0.18-0.42-0.52-0.72-0.7-0.25c-2.83,4.92-5.19,10.1-7.05,15.46
		c-0.88,2.91,1.5,3.84,4.52,3.45c1-0.14,2-0.35,2.96-0.64c0.06,0,0.12-0.01,0.18-0.04c0.05-0.03,0.1-0.06,0.14-0.11
		c0.04-0.04,0.08-0.1,0.1-0.15c0.02-0.06,0.02-0.12,0.02-0.18S81.45,134.01,81.43,133.95z M72.55,117.34
		c-0.27-0.31-0.66-0.51-1.07-0.54c-0.41-0.03-0.82,0.1-1.13,0.37c-0.32,0.27-0.51,0.65-0.55,1.06v3.46c0,0.2,0.05,0.4,0.12,0.59
		c0.08,0.19,0.2,0.36,0.34,0.51c0.14,0.14,0.32,0.25,0.5,0.33c0.2,0.08,0.4,0.12,0.6,0.12c0.21,0,0.41-0.04,0.6-0.12
		s0.36-0.19,0.5-0.33c0.14-0.15,0.26-0.32,0.34-0.51s0.12-0.39,0.12-0.59v-3.21C72.95,118.07,72.81,117.66,72.55,117.34z
		 M96.78,141.66c-0.78,1.41-1.97,2.56-3.41,3.29c-1.43,0.74-3.05,1.03-4.66,0.84h-1.46c-0.04-0.02-0.09-0.03-0.15-0.02
		c-0.05,0-0.1,0.01-0.15,0.03c-0.09,0.04-0.17,0.12-0.21,0.21c-0.03,0.1-0.03,0.21,0.01,0.3c0.04,0.1,0.12,0.17,0.21,0.21
		c0.95,0.62,2.03,1,3.15,1.12c1.13,0.12,2.26-0.03,3.32-0.44c1.09-0.41,2.05-1.12,2.76-2.05s1.15-2.03,1.27-3.2
		C97.46,141.47,96.93,141.18,96.78,141.66z M191.71,190.56c-0.01-0.06-0.02-0.11-0.05-0.16c-0.03-0.05-0.07-0.09-0.12-0.12
		c-0.04-0.04-0.1-0.06-0.15-0.07c-0.06-0.01-0.11-0.01-0.17,0.01c-4.05,0.79-8.02,2.01-11.81,3.64c-0.12,0.07-0.22,0.16-0.29,0.27
		c-0.08,0.11-0.13,0.23-0.15,0.37c-0.92,3.76-1.16,7.66-0.73,11.52c0.05,0.23,0.19,0.44,0.39,0.58c0.2,0.13,0.44,0.19,0.68,0.14
		c3.64-0.53,7.2-1.51,10.6-2.91c0.11-0.05,0.22-0.12,0.3-0.22c0.08-0.09,0.15-0.2,0.18-0.32
		C191.63,199.17,192.08,194.85,191.71,190.56z M188.79,202.37c-2.88,1.03-5.84,1.81-8.85,2.33c-0.14-3.11,0.09-6.22,0.68-9.28v-0.19
		c3.36-1.62,6.82-3,10.36-4.14C190.81,194.94,190.07,198.74,188.79,202.37z"/>
</g>
</svg>
